<svg xmlns="http://www.w3.org/2000/svg" width="64" height="64" viewBox="0 0 120 120" fill="none">

  <g id = "logo">
    <path fill-rule="evenodd" clip-rule="evenodd" d="M18.3125 42.0645L27.2623 6.6875L31.4375 7.87241L22.4878 43.3125L18.3125 42.0645Z" fill="#7572D5"/>
    <path fill-rule="evenodd" clip-rule="evenodd" d="M13.5025 12.6875L16.5625 15.9278L7.99501 25.0001L16.5625 34.0721L13.5025 37.3125L1.875 25.0001L13.5025 12.6875Z" fill="#7572D5"/>
    <path fill-rule="evenodd" clip-rule="evenodd" d="M36.4976 12.6875L33.4375 15.9278L42.0051 25.0001L33.4375 34.0721L36.4976 37.3125L48.125 25.0001L36.4976 12.6875Z" fill="#7572D5"/>
    <path d="M77.83 19.65C77.83 20.71 77.58 21.71 77.08 22.65C76.58 23.59 75.78 24.36 74.68 24.96C73.58 25.54 72.17 25.83 70.45 25.83H66.67V34.29H63.25V13.44H70.45C72.05 13.44 73.4 13.72 74.5 14.28C75.62 14.82 76.45 15.56 76.99 16.5C77.55 17.44 77.83 18.49 77.83 19.65ZM70.45 23.04C71.75 23.04 72.72 22.75 73.36 22.17C74 21.57 74.32 20.73 74.32 19.65C74.32 17.37 73.03 16.23 70.45 16.23H66.67V23.04H70.45ZM88.2618 34.56C86.7018 34.56 85.2918 34.21 84.0318 33.51C82.7718 32.79 81.7818 31.79 81.0618 30.51C80.3418 29.21 79.9818 27.71 79.9818 26.01C79.9818 24.33 80.3518 22.84 81.0918 21.54C81.8318 20.24 82.8418 19.24 84.1218 18.54C85.4018 17.84 86.8318 17.49 88.4118 17.49C89.9918 17.49 91.4218 17.84 92.7018 18.54C93.9818 19.24 94.9918 20.24 95.7318 21.54C96.4718 22.84 96.8418 24.33 96.8418 26.01C96.8418 27.69 96.4618 29.18 95.7018 30.48C94.9418 31.78 93.9018 32.79 92.5818 33.51C91.2818 34.21 89.8418 34.56 88.2618 34.56ZM88.2618 31.59C89.1418 31.59 89.9618 31.38 90.7218 30.96C91.5018 30.54 92.1318 29.91 92.6118 29.07C93.0918 28.23 93.3318 27.21 93.3318 26.01C93.3318 24.81 93.1018 23.8 92.6418 22.98C92.1818 22.14 91.5718 21.51 90.8118 21.09C90.0518 20.67 89.2318 20.46 88.3518 20.46C87.4718 20.46 86.6518 20.67 85.8918 21.09C85.1518 21.51 84.5618 22.14 84.1218 22.98C83.6818 23.8 83.4618 24.81 83.4618 26.01C83.4618 27.79 83.9118 29.17 84.8118 30.15C85.7318 31.11 86.8818 31.59 88.2618 31.59ZM103.643 20.16C104.143 19.32 104.803 18.67 105.623 18.21C106.463 17.73 107.453 17.49 108.593 17.49V21.03H107.723C106.383 21.03 105.363 21.37 104.663 22.05C103.983 22.73 103.643 23.91 103.643 25.59V34.29H100.223V17.76H103.643V20.16ZM115.726 20.55V29.7C115.726 30.32 115.866 30.77 116.146 31.05C116.446 31.31 116.946 31.44 117.646 31.44H119.746V34.29H117.046C115.506 34.29 114.326 33.93 113.506 33.21C112.686 32.49 112.276 31.32 112.276 29.7V20.55H110.326V17.76H112.276V13.65H115.726V17.76H119.746V20.55H115.726ZM129.828 20.55H126.768V34.29H123.318V20.55H121.368V17.76H123.318V16.59C123.318 14.69 123.818 13.31 124.818 12.45C125.838 11.57 127.428 11.13 129.588 11.13V13.98C128.548 13.98 127.818 14.18 127.398 14.58C126.978 14.96 126.768 15.63 126.768 16.59V17.76H129.828V20.55ZM140.029 34.56C138.469 34.56 137.059 34.21 135.799 33.51C134.539 32.79 133.549 31.79 132.829 30.51C132.109 29.21 131.749 27.71 131.749 26.01C131.749 24.33 132.119 22.84 132.859 21.54C133.599 20.24 134.609 19.24 135.889 18.54C137.169 17.84 138.599 17.49 140.179 17.49C141.759 17.49 143.189 17.84 144.469 18.54C145.749 19.24 146.759 20.24 147.499 21.54C148.239 22.84 148.609 24.33 148.609 26.01C148.609 27.69 148.229 29.18 147.469 30.48C146.709 31.78 145.669 32.79 144.349 33.51C143.049 34.21 141.609 34.56 140.029 34.56ZM140.029 31.59C140.909 31.59 141.729 31.38 142.489 30.96C143.269 30.54 143.899 29.91 144.379 29.07C144.859 28.23 145.099 27.21 145.099 26.01C145.099 24.81 144.869 23.8 144.409 22.98C143.949 22.14 143.339 21.51 142.579 21.09C141.819 20.67 140.999 20.46 140.119 20.46C139.239 20.46 138.419 20.67 137.659 21.09C136.919 21.51 136.329 22.14 135.889 22.98C135.449 23.8 135.229 24.81 135.229 26.01C135.229 27.79 135.679 29.17 136.579 30.15C137.499 31.11 138.649 31.59 140.029 31.59ZM155.41 12.09V34.29H151.99V12.09H155.41ZM161.64 15.57C161.02 15.57 160.5 15.36 160.08 14.94C159.66 14.52 159.45 14 159.45 13.38C159.45 12.76 159.66 12.24 160.08 11.82C160.5 11.4 161.02 11.19 161.64 11.19C162.24 11.19 162.75 11.4 163.17 11.82C163.59 12.24 163.8 12.76 163.8 13.38C163.8 14 163.59 14.52 163.17 14.94C162.75 15.36 162.24 15.57 161.64 15.57ZM163.32 17.76V34.29H159.9V17.76H163.32ZM174.981 34.56C173.421 34.56 172.011 34.21 170.751 33.51C169.491 32.79 168.501 31.79 167.781 30.51C167.061 29.21 166.701 27.71 166.701 26.01C166.701 24.33 167.071 22.84 167.811 21.54C168.551 20.24 169.561 19.24 170.841 18.54C172.121 17.84 173.551 17.49 175.131 17.49C176.711 17.49 178.141 17.84 179.421 18.54C180.701 19.24 181.711 20.24 182.451 21.54C183.191 22.84 183.561 24.33 183.561 26.01C183.561 27.69 183.181 29.18 182.421 30.48C181.661 31.78 180.621 32.79 179.301 33.51C178.001 34.21 176.561 34.56 174.981 34.56ZM174.981 31.59C175.861 31.59 176.681 31.38 177.441 30.96C178.221 30.54 178.851 29.91 179.331 29.07C179.811 28.23 180.051 27.21 180.051 26.01C180.051 24.81 179.821 23.8 179.361 22.98C178.901 22.14 178.291 21.51 177.531 21.09C176.771 20.67 175.951 20.46 175.071 20.46C174.191 20.46 173.371 20.67 172.611 21.09C171.871 21.51 171.281 22.14 170.841 22.98C170.401 23.8 170.181 24.81 170.181 26.01C170.181 27.79 170.631 29.17 171.531 30.15C172.451 31.11 173.601 31.59 174.981 31.59Z" fill="#7572D5"/>
  </g>

  <g id="html">
    <g id="SVGRepo_bgCarrier" stroke-width="0"></g><g id="SVGRepo_tracerCarrier" stroke-linecap="round" stroke-linejoin="round"></g><g id="SVGRepo_iconCarrier"> <path d="M6 28L4 3H28L26 28L16 31L6 28Z" fill="#E44D26"></path> <path d="M26 5H16V29.5L24 27L26 5Z" fill="#F16529"></path> <path d="M9.5 17.5L8.5 8H24L23.5 11H11.5L12 14.5H23L22 24L16 26L10 24L9.5 19H12.5L13 21.5L16 22.5L19 21.5L19.5 17.5H9.5Z" fill="white"></path> </g>

  </g>

  <g id="css">
<g id="SVGRepo_bgCarrier" stroke-width="0"></g><g id="SVGRepo_tracerCarrier" stroke-linecap="round" stroke-linejoin="round"></g><g id="SVGRepo_iconCarrier"> <path d="M6 28L4 3H28L26 28L16 31L6 28Z" fill="#1172B8"></path> <path d="M26 5H16V29.5L24 27L26 5Z" fill="#33AADD"></path> <path d="M19.5 17.5H9.5L9 14L17 11.5H9L8.5 8.5H24L23.5 12L17 14.5H23L22 24L16 26L10 24L9.5 19H12.5L13 21.5L16 22.5L19 21.5L19.5 17.5Z" fill="white"></path> </g>
  </g>

  <g id="js">
    <g id="SVGRepo_bgCarrier" stroke-width="0"></g><g id="SVGRepo_tracerCarrier" stroke-linecap="round" stroke-linejoin="round"></g><g id="SVGRepo_iconCarrier"> <rect x="2" y="2" width="28" height="28" fill="#FFCA28"></rect> <path d="M19 25.2879L21.0615 23.9237C21.2231 24.4313 22.2462 25.6368 23.5385 25.6368C24.8308 25.6368 25.4308 24.931 25.4308 24.463C25.4308 23.1878 24.1112 22.7382 23.4774 22.5223C23.374 22.4871 23.289 22.4581 23.2308 22.4328C23.2009 22.4198 23.1558 22.4025 23.0979 22.3804C22.393 22.1111 19.7923 21.1175 19.7923 18.2373C19.7923 15.065 22.8538 14.7002 23.5462 14.7002C23.9991 14.7002 26.1769 14.7557 27.2615 16.7939L25.2615 18.1898C24.8231 17.3015 24.0946 17.0081 23.6462 17.0081C22.5385 17.0081 22.3077 17.8201 22.3077 18.1898C22.3077 19.227 23.5112 19.6919 24.5273 20.0844C24.7932 20.1871 25.0462 20.2848 25.2615 20.3866C26.3692 20.91 28 21.7666 28 24.463C28 25.8136 26.8672 28.0002 24.0154 28.0002C20.1846 28.0002 19.1692 25.7003 19 25.2879Z" fill="#3E3E3E"></path> <path d="M9 25.5587L11.1487 24.1953C11.317 24.7026 11.9713 25.638 12.9205 25.638C13.8698 25.638 14.3557 24.663 14.3557 24.1953V15.0002H16.9982V24.1953C17.041 25.4636 16.3376 28.0002 13.2332 28.0002C10.379 28.0002 9.19242 26.3039 9 25.5587Z" fill="#3E3E3E"></path> </g>
  </g>

  <g id="sass">
    <g id="SVGRepo_bgCarrier" stroke-width="0"></g><g id="SVGRepo_tracerCarrier" stroke-linecap="round" stroke-linejoin="round"></g><g id="SVGRepo_iconCarrier"><title>file_type_sass</title><path d="M26.11,17.572a5.8,5.8,0,0,0-2.537.588,5.345,5.345,0,0,1-.568-1.314,3.53,3.53,0,0,1-.051-1.1,9.811,9.811,0,0,1,.332-1.192c-.005-.051-.061-.292-.624-.3s-1.048.107-1.1.256a6.171,6.171,0,0,0-.235.834,19.686,19.686,0,0,1-1.713,3.294,3.186,3.186,0,0,1-.44-2.066,9.811,9.811,0,0,1,.332-1.192c-.005-.051-.061-.292-.624-.3s-1.048.107-1.1.256-.118.5-.235.834-1.483,3.386-1.841,4.173c-.184.4-.343.726-.455.946h0a.233.233,0,0,1-.02.041c-.1.189-.153.292-.153.292v.005c-.077.138-.159.266-.2.266a1.711,1.711,0,0,1,.01-.869c.2-1.059.69-2.705.685-2.762,0-.031.092-.317-.317-.465a.508.508,0,0,0-.578.1c-.036,0-.061.087-.061.087s.445-1.851-.849-1.851a3.855,3.855,0,0,0-2.475,1.683c-.348.189-1.089.593-1.882,1.028-.3.169-.614.338-.905.5-.02-.02-.041-.046-.061-.066C6.87,17.6,3.975,16.416,4.1,14.171c.046-.818.327-2.966,5.559-5.575,4.306-2.122,7.733-1.534,8.326-.23.849,1.862-1.836,5.319-6.285,5.82a3.351,3.351,0,0,1-2.813-.711c-.235-.256-.271-.271-.358-.22-.143.077-.051.307,0,.44a2.626,2.626,0,0,0,1.606,1.263,8.55,8.55,0,0,0,5.217-.517c2.7-1.043,4.8-3.943,4.184-6.372-.619-2.465-4.71-3.278-8.582-1.9A19.5,19.5,0,0,0,4.359,9.952c-2.133,1.995-2.47,3.728-2.332,4.455.5,2.578,4.051,4.255,5.472,5.5-.072.041-.138.077-.194.107-.711.353-3.421,1.77-4.1,3.268-.767,1.7.123,2.915.711,3.079a4.374,4.374,0,0,0,4.71-1.908A4.725,4.725,0,0,0,9.049,20.1a.107.107,0,0,0-.02-.031l.557-.327c.363-.215.721-.414,1.028-.578a6.74,6.74,0,0,0-.363,1.862,3.886,3.886,0,0,0,.834,2.7.921.921,0,0,0,.675.22c.6,0,.875-.5,1.176-1.094.368-.726.7-1.57.7-1.57s-.414,2.281.711,2.281c.409,0,.823-.532,1.008-.8v.005s.01-.015.031-.051l.066-.107v-.01c.164-.286.532-.936,1.079-2.015.706-1.391,1.386-3.13,1.386-3.13a8.888,8.888,0,0,0,.271,1.13,10.643,10.643,0,0,0,.583,1.309c-.164.23-.266.358-.266.358l.005.005c-.133.174-.276.363-.435.547a16.3,16.3,0,0,0-1.314,1.647.447.447,0,0,0,.123.6,1.116,1.116,0,0,0,.685.113,3.147,3.147,0,0,0,1.028-.235,3.45,3.45,0,0,0,.885-.465,1.98,1.98,0,0,0,.849-1.744,3.521,3.521,0,0,0-.322-1.233c.051-.072.1-.143.148-.215a23.428,23.428,0,0,0,1.534-2.649,8.888,8.888,0,0,0,.271,1.13,7.57,7.57,0,0,0,.5,1.125A4.861,4.861,0,0,0,20.965,20.8c-.322.931-.072,1.35.4,1.447a1.425,1.425,0,0,0,.747-.153,3.4,3.4,0,0,0,.946-.486,2.126,2.126,0,0,0,1.043-1.729,3.268,3.268,0,0,0-.235-1.023,5.356,5.356,0,0,1,2.716-.312c2.434.286,2.915,1.805,2.823,2.445a1.618,1.618,0,0,1-.772,1.094c-.169.107-.225.143-.21.22.02.113.1.107.245.087A1.9,1.9,0,0,0,30,20.7c.077-1.5-1.355-3.145-3.887-3.13ZM7.33,23.9c-.808.88-1.933,1.212-2.419.931-.522-.3-.317-1.6.675-2.532a12.884,12.884,0,0,1,1.9-1.417c.118-.072.292-.174.5-.3l.056-.031h0l.123-.077A3.493,3.493,0,0,1,7.33,23.9Zm5.881-4c-.281.685-.869,2.44-1.227,2.342-.307-.082-.5-1.412-.061-2.726a6.193,6.193,0,0,1,.956-1.754c.44-.491.926-.655,1.043-.455a9.062,9.062,0,0,1-.711,2.593Zm4.853,2.322c-.118.061-.23.1-.281.072-.036-.02.051-.1.051-.1s.609-.655.849-.951c.138-.174.3-.378.476-.609V20.7c0,.782-.757,1.309-1.094,1.524Zm3.744-.854c-.087-.061-.072-.266.22-.905a3.408,3.408,0,0,1,.834-1.074,1.448,1.448,0,0,1,.082.471,1.547,1.547,0,0,1-1.135,1.509Z" style="fill:#cd6799"></path></g>
  </g>

  <g id="react">
     <g id="SVGRepo_bgCarrier" stroke-width="0"></g><g id="SVGRepo_tracerCarrier" stroke-linecap="round" stroke-linejoin="round"></g><g id="SVGRepo_iconCarrier"><title>file_type_reactts</title><circle cx="16" cy="15.974" r="2.5" style="fill:#007acc"></circle><path d="M16,21.706a28.385,28.385,0,0,1-8.88-1.2,11.3,11.3,0,0,1-3.657-1.958A3.543,3.543,0,0,1,2,15.974c0-1.653,1.816-3.273,4.858-4.333A28.755,28.755,0,0,1,16,10.293a28.674,28.674,0,0,1,9.022,1.324,11.376,11.376,0,0,1,3.538,1.866A3.391,3.391,0,0,1,30,15.974c0,1.718-2.03,3.459-5.3,4.541A28.8,28.8,0,0,1,16,21.706Zm0-10.217a27.948,27.948,0,0,0-8.749,1.282c-2.8.977-4.055,2.313-4.055,3.2,0,.928,1.349,2.387,4.311,3.4A27.21,27.21,0,0,0,16,20.51a27.6,27.6,0,0,0,8.325-1.13C27.4,18.361,28.8,16.9,28.8,15.974a2.327,2.327,0,0,0-1.01-1.573,10.194,10.194,0,0,0-3.161-1.654A27.462,27.462,0,0,0,16,11.489Z" style="fill:#007acc"></path><path d="M10.32,28.443a2.639,2.639,0,0,1-1.336-.328c-1.432-.826-1.928-3.208-1.327-6.373a28.755,28.755,0,0,1,3.4-8.593h0A28.676,28.676,0,0,1,16.71,5.995a11.376,11.376,0,0,1,3.384-2.133,3.391,3.391,0,0,1,2.878,0c1.489.858,1.982,3.486,1.287,6.859a28.806,28.806,0,0,1-3.316,8.133,28.385,28.385,0,0,1-5.476,7.093,11.3,11.3,0,0,1-3.523,2.189A4.926,4.926,0,0,1,10.32,28.443Zm1.773-14.7a27.948,27.948,0,0,0-3.26,8.219c-.553,2.915-.022,4.668.75,5.114.8.463,2.742.024,5.1-2.036a27.209,27.209,0,0,0,5.227-6.79,27.6,27.6,0,0,0,3.181-7.776c.654-3.175.089-5.119-.713-5.581a2.327,2.327,0,0,0-1.868.089A10.194,10.194,0,0,0,17.5,6.9a27.464,27.464,0,0,0-5.4,6.849Z" style="fill:#007acc"></path><path d="M21.677,28.456c-1.355,0-3.076-.82-4.868-2.361a28.756,28.756,0,0,1-5.747-7.237h0a28.676,28.676,0,0,1-3.374-8.471,11.376,11.376,0,0,1-.158-4A3.391,3.391,0,0,1,8.964,3.9c1.487-.861,4.01.024,6.585,2.31a28.8,28.8,0,0,1,5.39,6.934,28.384,28.384,0,0,1,3.41,8.287,11.3,11.3,0,0,1,.137,4.146,3.543,3.543,0,0,1-1.494,2.555A2.59,2.59,0,0,1,21.677,28.456Zm-9.58-10.2a27.949,27.949,0,0,0,5.492,6.929c2.249,1.935,4.033,2.351,4.8,1.9.8-.465,1.39-2.363.782-5.434A27.212,27.212,0,0,0,19.9,13.74,27.6,27.6,0,0,0,14.755,7.1c-2.424-2.152-4.39-2.633-5.191-2.169a2.327,2.327,0,0,0-.855,1.662,10.194,10.194,0,0,0,.153,3.565,27.465,27.465,0,0,0,3.236,8.1Z" style="fill:#007acc"></path></g>
  </g>

  <g id="ts">
   <g id="SVGRepo_bgCarrier" stroke-width="0"></g><g id="SVGRepo_tracerCarrier" stroke-linecap="round" stroke-linejoin="round"></g><g id="SVGRepo_iconCarrier"> <path fill-rule="evenodd" clip-rule="evenodd" d="M20 5H5V20H20V5ZM11.0769 18H9.82349V13.0444H8.02637V12.011H12.874V13.0444H11.0769V18ZM18.2893 16.2153C18.2893 17.4023 17.3679 18.1536 15.8738 18.1536C14.4419 18.1536 13.5371 17.4688 13.4666 16.4062L13.4624 16.3398H14.6702L14.6743 16.3813C14.72 16.8296 15.2056 17.1326 15.907 17.1326C16.5752 17.1326 17.0359 16.813 17.0359 16.3523V16.3481C17.0359 15.9539 16.7412 15.7339 15.9983 15.5803L15.3674 15.4517C14.1223 15.1985 13.5869 14.6174 13.5869 13.7085V13.7043C13.5869 12.592 14.5415 11.8574 15.8696 11.8574C17.2683 11.8574 18.0901 12.5962 18.1689 13.5964L18.1731 13.6504H16.9944L16.9861 13.6006C16.9155 13.1731 16.5005 12.8743 15.8696 12.8743C15.2512 12.8784 14.8403 13.1606 14.8403 13.6089V13.613C14.8403 14.0032 15.1309 14.2356 15.8364 14.3809L16.4714 14.5095C17.7373 14.771 18.2893 15.2773 18.2893 16.2112V16.2153Z" fill="#121923"></path> </g>
  </g>

  <g id="git">
    <g id="SVGRepo_bgCarrier" stroke-width="0"></g><g id="SVGRepo_tracerCarrier" stroke-linecap="round" stroke-linejoin="round"></g><g id="SVGRepo_iconCarrier"> <path d="M2.58536 17.4132C1.80488 16.6327 1.80488 15.3673 2.58536 14.5868L14.5868 2.58536C15.3673 1.80488 16.6327 1.80488 17.4132 2.58536L29.4146 14.5868C30.1951 15.3673 30.1951 16.6327 29.4146 17.4132L17.4132 29.4146C16.6327 30.1951 15.3673 30.1951 14.5868 29.4146L2.58536 17.4132Z" fill="#EE513B"></path> <path d="M12.1489 5.06152L10.9336 6.27686L14.0725 9.41577C13.9455 9.68819 13.8746 9.99201 13.8746 10.3124C13.8746 11.222 14.4461 11.9981 15.2496 12.3012V19.9798C14.4461 20.2829 13.8746 21.059 13.8746 21.9686C13.8746 23.1422 14.826 24.0936 15.9996 24.0936C17.1732 24.0936 18.1246 23.1422 18.1246 21.9686C18.1246 21.144 17.6549 20.429 16.9684 20.0768V12.3117L19.9689 15.3122C19.8481 15.5791 19.7809 15.8754 19.7809 16.1874C19.7809 17.361 20.7323 18.3124 21.9059 18.3124C23.0795 18.3124 24.0309 17.361 24.0309 16.1874C24.0309 15.0138 23.0795 14.0624 21.9059 14.0624C21.6778 14.0624 21.4582 14.0983 21.2522 14.1648L18.0297 10.9423C18.0914 10.7433 18.1246 10.5317 18.1246 10.3124C18.1246 9.13878 17.1732 8.18738 15.9996 8.18738C15.7803 8.18738 15.5688 8.22061 15.3697 8.2823L12.1489 5.06152Z" fill="white"></path> </g>
  </g>

  <g id="github">
  <g id="SVGRepo_bgCarrier" stroke-width="0"></g><g id="SVGRepo_tracerCarrier" stroke-linecap="round" stroke-linejoin="round"></g><g id="SVGRepo_iconCarrier"><path fill-rule="evenodd" clip-rule="evenodd" d="M12.2047 0.00001C6.56031 -0.005731 1.74628 4.08615 0.842541 9.6577C-0.061195 15.2293 3.2126 20.6331 8.56941 22.4118C9.14823 22.5177 9.35294 22.1577 9.35294 21.8541C9.35294 21.5506 9.35294 20.8588 9.35294 19.8988C6.14117 20.5977 5.46353 18.3529 5.46353 18.3529C5.25046 17.6572 4.79779 17.0595 4.18588 16.6659C3.14823 15.96 4.27059 15.96 4.27059 15.96C5.00761 16.0641 5.65578 16.5014 6.02823 17.1459C6.34368 17.7179 6.87393 18.1406 7.50179 18.3208C8.12965 18.5009 8.8034 18.4236 9.37411 18.1059C9.41842 17.5252 9.66876 16.9794 10.08 16.5671C7.5247 16.2777 4.84235 15.2894 4.84235 10.92C4.82481 9.7786 5.24688 8.67412 6.02117 7.8353C5.67632 6.84285 5.71662 5.7571 6.13412 4.79295C6.13412 4.79295 7.10117 4.48236 9.29647 5.97177C11.1816 5.45419 13.1713 5.45419 15.0565 5.97177C17.2518 4.48236 18.2118 4.79295 18.2118 4.79295C18.6351 5.74689 18.6854 6.82486 18.3529 7.81412C19.1272 8.65294 19.5493 9.7574 19.5318 10.8988C19.5318 15.3177 16.8424 16.2847 14.28 16.5459C14.8359 17.1047 15.1218 17.8774 15.0635 18.6635C15.0635 20.2024 15.0635 21.4447 15.0635 21.8188C15.0635 22.1929 15.2682 22.4824 15.8541 22.3694C21.1473 20.5447 24.3569 15.1728 23.4554 9.6469C22.5539 4.1211 17.8034 0.04779 12.2047 0.00001z" fill="#758CA3"></path></g>
  </g>

  <g id="styled">
<g id="SVGRepo_bgCarrier" stroke-width="0"></g><g id="SVGRepo_tracerCarrier" stroke-linecap="round" stroke-linejoin="round"></g><g id="SVGRepo_iconCarrier"><title>file_type_styled</title><path d="M18.05,29.6c.042-.095.148-.161.225-.241,1.175-1.232,2.36-2.453,3.519-3.7A3.2,3.2,0,0,0,22.808,23a5.925,5.925,0,0,0-.143-.624c-.316.3-.61.573-.906.848-.46.428-.918.858-1.382,1.281a1.931,1.931,0,0,1-2.148.419,1.973,1.973,0,0,1-1.29-1.75,1.04,1.04,0,0,0-.043-.146c-.353.3-.691.576-1.026.86l-6.963,5.9c-.048.041-.1.092-.145.132h9.283l-.014-.009C17.981,29.876,18.007,29.692,18.05,29.6Z" style="fill:#ffcebf"></path><path d="M8.337,29.6a1.239,1.239,0,0,1,.295-.276l9.636-8.175q.986-.837,1.963-1.683a.523.523,0,0,0,.182-.224,5.364,5.364,0,0,0,.065-2.069c-.1.07-.154.1-.2.149-.789.706-1.574,1.418-2.367,2.12a1.762,1.762,0,0,1-2.048.329,1.889,1.889,0,0,1-1.08-1.807c0-.085,0-.169,0-.324-.145.106-.251.177-.35.257Q8.648,22.529,2.865,27.154c-.174.139-.382.449-.61.148s.119-.425.294-.565q6.165-4.947,12.336-9.885c.67-.537.714-.762.278-1.615l-.26.244c-.713.663-1.434,1.317-2.136,1.991a2.121,2.121,0,0,1-3.585-1.337c-.133.1-.248.173-.357.258l-6.1,4.728a1.485,1.485,0,0,1-.356.258.446.446,0,0,1-.3-.015v8.561H8.325A.365.365,0,0,1,8.337,29.6Z" style="fill:#ffcebf"></path><path d="M25.237,2.423c-.17.557-.335,1.115-.484,1.678a1.688,1.688,0,0,0,.9,2.09,7.122,7.122,0,0,0,3.818.8V2.518a.73.73,0,0,1,.016-.294.666.666,0,0,1,.105-.149H25.233C25.3,2.153,25.277,2.29,25.237,2.423Z" style="fill:#ff6196"></path><path d="M16.482,12.032a2.422,2.422,0,0,1-.5,1.376A22.671,22.671,0,0,1,12.256,17.2a1.442,1.442,0,0,1-1.684.2,1.393,1.393,0,0,1-.843-1.368,1.624,1.624,0,0,1,.417-.947,35.848,35.848,0,0,1,5.019-3.993.71.71,0,0,1,.829-.034A1.041,1.041,0,0,1,16.482,12.032Z" style="fill:#ff87af"></path><path d="M15.284,18.093a1.437,1.437,0,0,1,.448-1.2,38.336,38.336,0,0,1,4.87-3.813c.052-.033.1-.066.157-.1a.837.837,0,0,1,1.025.035.861.861,0,0,1,.242.979,4.39,4.39,0,0,1-1.168,1.908c-1.105,1.1-2.252,2.164-3.4,3.22a1.124,1.124,0,0,1-1.364.192A1.512,1.512,0,0,1,15.284,18.093Z" style="fill:#ff87af"></path><path d="M22.5,18.754c-.28.3-.568.586-.837.893a1.89,1.89,0,0,0-.2.38c.148.044.321.16.441.119.611-.205,1.207-.451,1.878-.71-.146.336-.256.646-.411.93A12.189,12.189,0,0,1,21,23.238q-.532.513-1.105.981a1.484,1.484,0,0,1-2.415-.92,1.1,1.1,0,0,1,.238-.813,22.187,22.187,0,0,1,4.623-3.823.193.193,0,0,1,.065-.013Z" style="fill:#ff87af"></path><path d="M24.794,14.771l1.711-7.6,1.2.281-.619,1.881c-.578,1.75-1.163,3.5-1.727,5.252C25.249,14.909,25.105,14.969,24.794,14.771Z" style="fill:#ff6196"></path><path d="M22.862,19.241c.181-.691.361-1.33.513-1.976a4.468,4.468,0,0,1,.826-1.721c.243-.319.516-.192.795-.123.258.063.323.252.334.5a2.845,2.845,0,0,1-.588,1.907A4.8,4.8,0,0,1,22.862,19.241Z" style="fill:#ff6196"></path><path d="M29.993,2.894a3.623,3.623,0,0,0-.017-.668.291.291,0,0,0-.116-.151A.381.381,0,0,0,29.708,2c-.032-.006-.077.027-.12.074a.666.666,0,0,0-.105.149.73.73,0,0,0-.016.294V6.989a7.122,7.122,0,0,1-3.818-.8,1.688,1.688,0,0,1-.9-2.09c.149-.563.314-1.121.484-1.678.04-.133.063-.27,0-.348a.2.2,0,0,0-.135-.064.3.3,0,0,0-.182.064.434.434,0,0,0-.171.19c-.2.6-.376,1.206-.529,1.818a2.148,2.148,0,0,0-.046.737,2.339,2.339,0,0,0,1.542,2c.189.079.3.157.247.406-.073.316-.144.632-.216.949q-.735,3.222-1.462,6.447a.483.483,0,0,1-.121.257,3.228,3.228,0,0,0-.791.92,4.8,4.8,0,0,0-.53,1.5.981.981,0,0,1-.558.785c-.417.211-.8.484-1.263.768A12.639,12.639,0,0,0,21,17.179a1.062,1.062,0,0,1,.284-.96,4.75,4.75,0,0,0,1.258-2.194,1.294,1.294,0,0,0-1.208-1.7,1.7,1.7,0,0,0-.929.264c-.957.646-1.888,1.332-2.812,2.026-.547.412-1.062.868-1.592,1.3a.418.418,0,0,1-.059-.081.842.842,0,0,0-.059-.214c-.443-.684-.136-1.181.345-1.692A2.793,2.793,0,0,0,17,11.977a1.568,1.568,0,0,0-.327-1.026,1.459,1.459,0,0,0-.438-.363,1.337,1.337,0,0,0-1.517.162l-.279.2c-.637.456-1.282.9-1.895,1.388-.895.712-1.769,1.454-2.626,2.214-.4.353-.692.835-1.107,1.163-2.164,1.709-4.351,3.387-6.53,5.076a1.022,1.022,0,0,0-.205.161.164.164,0,0,0-.016.029c-.046.107-.085.284-.031.349a.141.141,0,0,0,.047.033.446.446,0,0,0,.3.015,1.485,1.485,0,0,0,.356-.258l6.1-4.728c.109-.085.224-.162.357-.258a2.121,2.121,0,0,0,3.585,1.337c.7-.674,1.423-1.328,2.136-1.991l.26-.244c.436.853.392,1.078-.278,1.615Q8.716,21.793,2.549,26.737c-.175.14-.521.267-.294.565s.436-.009.61-.148Q8.651,22.533,14.429,17.9c.1-.08.205-.151.35-.257,0,.155,0,.239,0,.324a1.889,1.889,0,0,0,1.08,1.807,1.762,1.762,0,0,0,2.048-.329c.793-.7,1.578-1.414,2.367-2.12.05-.045.108-.079.2-.149a5.364,5.364,0,0,1-.065,2.069.523.523,0,0,1-.182.224q-.978.845-1.963,1.683L8.632,29.328a1.239,1.239,0,0,0-.295.276.365.365,0,0,0-.012.321v0a.376.376,0,0,0,.32.063.294.294,0,0,0,.116-.065c.05-.04.1-.091.145-.132l6.963-5.9c.335-.284.673-.564,1.026-.86a1.04,1.04,0,0,1,.043.146,1.973,1.973,0,0,0,1.29,1.75,1.931,1.931,0,0,0,2.148-.419c.464-.423.922-.853,1.382-1.281.3-.275.59-.551.906-.848a5.925,5.925,0,0,1,.143.624,3.2,3.2,0,0,1-1.014,2.649c-1.159,1.248-2.344,2.469-3.519,3.7-.077.08-.183.146-.225.241s-.069.281-.019.321l.014.009a.573.573,0,0,0,.338.051.136.136,0,0,0,.081-.051c.028-.029.055-.065.082-.092.952-.984,1.909-1.963,2.854-2.954a13.982,13.982,0,0,0,1.074-1.223,3.411,3.411,0,0,0,.61-3.616.516.516,0,0,1,.074-.386c.065-.112.137-.221.211-.329a4.632,4.632,0,0,0,.587-1,7.547,7.547,0,0,1,1.339-2.4,2.792,2.792,0,0,0,.5-2.469.988.988,0,0,1,0-.489c.506-1.567,1.027-3.129,1.543-4.692q.347-1.05.69-2.094l.213-.647c.454,0,.882-.009,1.308,0,.354.01.462-.156.458-.5C29.985,5.652,29.993,4.273,29.993,2.894ZM12.256,17.2a1.442,1.442,0,0,1-1.684.2,1.393,1.393,0,0,1-.843-1.368,1.624,1.624,0,0,1,.417-.947,35.848,35.848,0,0,1,5.019-3.993.852.852,0,0,1,.326-.14.656.656,0,0,1,.238,0,.763.763,0,0,1,.265.106,1.041,1.041,0,0,1,.488.975,2.422,2.422,0,0,1-.5,1.376A22.671,22.671,0,0,1,12.256,17.2Zm5.2,1.929a1.124,1.124,0,0,1-1.364.192,1.512,1.512,0,0,1-.81-1.224,1.437,1.437,0,0,1,.448-1.2,38.336,38.336,0,0,1,4.87-3.813c.052-.033.1-.066.157-.1a.837.837,0,0,1,1.025.035.861.861,0,0,1,.242.979,4.39,4.39,0,0,1-1.168,1.908C19.753,17.008,18.606,18.069,17.458,19.125Zm5.911,1.241A12.189,12.189,0,0,1,21,23.238q-.532.513-1.105.981a1.484,1.484,0,0,1-2.415-.92,1.1,1.1,0,0,1,.238-.813,22.187,22.187,0,0,1,4.623-3.823.193.193,0,0,1,.065-.013l.1.1c-.28.3-.568.586-.837.893a1.89,1.89,0,0,0-.2.38c.148.044.321.16.441.119.483-.162.958-.35,1.467-.55l.411-.16C23.634,19.772,23.524,20.082,23.369,20.366Zm1.373-2.535a4.363,4.363,0,0,1-1.373,1.152q-.247.138-.507.258c.178-.681.356-1.312.507-1.95l.006-.026a4.468,4.468,0,0,1,.826-1.721c.243-.319.516-.192.795-.123.258.063.323.252.334.5A2.845,2.845,0,0,1,24.742,17.831Zm2.34-8.5c-.578,1.75-1.163,3.5-1.727,5.252-.106.329-.25.389-.561.191l1.483-6.593.228-1.012,1.2.281c-.082.247-.161.49-.241.731Z"></path></g>
  </g>

  <g id="figma">
<g id="SVGRepo_bgCarrier" stroke-width="0"></g><g id="SVGRepo_tracerCarrier" stroke-linecap="round" stroke-linejoin="round"></g><g id="SVGRepo_iconCarrier"> <path fill-rule="evenodd" clip-rule="evenodd" d="M16 16C16 13.7909 17.7909 12 20 12C22.2091 12 24 13.7909 24 16C24 18.2091 22.2091 20 20 20C17.7909 20 16 18.2091 16 16Z" fill="#1ABCFE"></path> <path fill-rule="evenodd" clip-rule="evenodd" d="M8 24C8 21.7909 9.79086 20 12 20H16V24C16 26.2091 14.2091 28 12 28C9.79086 28 8 26.2091 8 24Z" fill="#0ACF83"></path> <path fill-rule="evenodd" clip-rule="evenodd" d="M16 4V12H20C22.2091 12 24 10.2091 24 8C24 5.79086 22.2091 4 20 4H16Z" fill="#FF7262"></path> <path fill-rule="evenodd" clip-rule="evenodd" d="M8 8C8 10.2091 9.79086 12 12 12H16V4H12C9.79086 4 8 5.79086 8 8Z" fill="#F24E1E"></path> <path fill-rule="evenodd" clip-rule="evenodd" d="M8 16C8 18.2091 9.79086 20 12 20H16V12H12C9.79086 12 8 13.7909 8 16Z" fill="#A259FF"></path> </g>
  </g>

<g id="bem">

</g>

  <g id="npm">
    <g id="SVGRepo_bgCarrier" stroke-width="0"></g><g id="SVGRepo_tracerCarrier" stroke-linecap="round" stroke-linejoin="round"></g><g id="SVGRepo_iconCarrier"> <path d="M0 10V20H9V22H16V20H32V10H0Z" fill="#CB3837"></path> <path d="M5.46205 12H2V18H5.46205V13.6111H7.22344V18H8.98482V12H5.46205ZM10.7462 12V20H14.269V18H17.731V12H10.7462ZM15.9696 16.3889H14.269V13.6111H15.9696V16.3889ZM22.9545 12H19.4924V18H22.9545V13.6111H24.7158V18H26.4772V13.6111H28.2386V18H30V12H22.9545Z" fill="white"></path> </g>
  </g>

  <g id="gulp">
    <g id="SVGRepo_bgCarrier" stroke-width="0"></g><g id="SVGRepo_tracerCarrier" stroke-linecap="round" stroke-linejoin="round"></g><g id="SVGRepo_iconCarrier"><title>file_type_gulp</title><path d="M15.942,24.095a15.353,15.353,0,0,1-3.518-.393,6.761,6.761,0,0,1-1.006-.311l.813,1.389.318,4.34c0,.487,1.546.881,3.452.881s3.452-.394,3.452-.881l.252-4.387.769-1.346a6.691,6.691,0,0,1-1.015.315A15.353,15.353,0,0,1,15.942,24.095ZM20.5,9.973a34.285,34.285,0,0,1-4.5.261,34.285,34.285,0,0,1-4.5-.261,8.43,8.43,0,0,1-1.4-.292,2.03,2.03,0,0,1-.345-.143L10.5,16.4q.052-.177.116-.354a6.711,6.711,0,0,1,.3-.707,6.264,6.264,0,0,1,.376-.653,5.049,5.049,0,0,1,.432-.566,3.45,3.45,0,0,1,.47-.445,2.238,2.238,0,0,1,.487-.291,1.235,1.235,0,0,1,.487-.1,1.051,1.051,0,0,1,.538.152,1.541,1.541,0,0,1,.486.492.393.393,0,0,1,.066.154.838.838,0,0,1,.014.147.391.391,0,0,1-.078.257.233.233,0,0,1-.185.094.237.237,0,0,1-.182-.1,1.953,1.953,0,0,1-.188-.295.712.712,0,0,0-.215-.251.453.453,0,0,0-.255-.078.788.788,0,0,0-.457.177,2.652,2.652,0,0,0-.481.468,5.131,5.131,0,0,0-.457.666,6.946,6.946,0,0,0-.386.767,5.477,5.477,0,0,0-.267.774,2.751,2.751,0,0,0-.1.685,1.64,1.64,0,0,0,.014.208.7.7,0,0,0,.052.194.389.389,0,0,0,.1.143.247.247,0,0,0,.166.056.561.561,0,0,0,.257-.076,1.928,1.928,0,0,0,.3-.2,3.741,3.741,0,0,0,.31-.279q.156-.155.29-.315t.238-.306a1.808,1.808,0,0,0,.156-.255l.284-.85a.4.4,0,0,1,.136-.2.3.3,0,0,1,.173-.058.267.267,0,0,1,.085.014.209.209,0,0,1,.13.125.3.3,0,0,1,.02.114,1.653,1.653,0,0,1-.031.326,2.587,2.587,0,0,1-.078.3q-.047.145-.105.291t-.113.306a.694.694,0,0,0-.044.114q-.032.1-.078.241t-.1.324l-.11.365q-.057.186-.108.365t-.093.324l-.069.242c-.018.065-.03.1-.034.116a.753.753,0,0,1-.049.128.848.848,0,0,1-.079.134.488.488,0,0,1-.1.1.186.186,0,0,1-.113.042.159.159,0,0,1-.142-.065.455.455,0,0,1-.044-.239v-.051a.514.514,0,0,1,0-.054A1.283,1.283,0,0,1,12.3,18.8q.043-.159.1-.36t.128-.416q.069-.215.124-.385-.162.181-.351.36a3.788,3.788,0,0,1-.388.322,2.3,2.3,0,0,1-.4.233.947.947,0,0,1-.388.09.694.694,0,0,1-.368-.094c-.019-.011-.036-.024-.053-.037l.415,4.352c.108.271,2.142.936,4.825.936s4.719-.666,4.825-.937l.6-5.174-.143.132a6.253,6.253,0,0,1-.484.41,2.184,2.184,0,0,1-.444.266,1.153,1.153,0,0,1-.464.094.562.562,0,0,1-.359-.1.337.337,0,0,1-.127-.278v-.027a.184.184,0,0,1,0-.031.657.657,0,0,1,.095-.25,2.868,2.868,0,0,1,.2-.293q.116-.152.247-.308t.243-.295a2.847,2.847,0,0,0,.185-.255.383.383,0,0,0,.073-.188.085.085,0,0,0-.031-.069.16.16,0,0,0-.1-.025.573.573,0,0,0-.252.063,1.251,1.251,0,0,0-.257.17,2.324,2.324,0,0,0-.247.244,3.6,3.6,0,0,0-.226.286q-.105.148-.192.3t-.148.277l-.052.112q-.034.072-.073.163t-.084.186q-.044.1-.081.181l-.066.152q-.029.067-.041.092t-.05.123q-.035.09-.081.212l-.1.255-.095.253-.078.21c-.022.06-.037.1-.043.123a1.32,1.32,0,0,1-.072.177.73.73,0,0,1-.095.147.433.433,0,0,1-.122.1.312.312,0,0,1-.154.038.3.3,0,0,1-.182-.052.236.236,0,0,1-.072-.2.631.631,0,0,1,.018-.148,1.322,1.322,0,0,1,.046-.15c.018-.05.037-.1.057-.145s.037-.092.053-.136q.165-.362.336-.725t.328-.72c.022-.05.042-.1.063-.147l-.019.019a4.054,4.054,0,0,1-.4.338,2.1,2.1,0,0,1-.391.233.922.922,0,0,1-.377.087.487.487,0,0,1-.209-.04.349.349,0,0,1-.134-.108.433.433,0,0,1-.072-.163c0-.021-.008-.044-.011-.066-.036.028-.072.055-.108.081a2.192,2.192,0,0,1-.373.215.824.824,0,0,1-.33.081.312.312,0,0,1-.238-.1.482.482,0,0,1-.091-.333,1.824,1.824,0,0,1,.049-.387,1.978,1.978,0,0,1-.2.286,1.741,1.741,0,0,1-.272.264,1.358,1.358,0,0,1-.342.193,1.122,1.122,0,0,1-.412.074.737.737,0,0,1-.194-.025.407.407,0,0,1-.163-.087.436.436,0,0,1-.113-.165.679.679,0,0,1-.043-.259s0-.039.012-.11a2.357,2.357,0,0,1,.078-.336q.066-.23.2-.6t.388-.886a.489.489,0,0,1,.148-.2.308.308,0,0,1,.182-.06.335.335,0,0,1,.089.013.286.286,0,0,1,.086.04.215.215,0,0,1,.064.069.187.187,0,0,1,.024.1.251.251,0,0,1-.009.069.824.824,0,0,1-.066.161q-.05.1-.118.228t-.142.277q-.075.148-.139.307a3.069,3.069,0,0,0-.11.324,1.4,1.4,0,0,0-.052.32.238.238,0,0,0,.031.119.107.107,0,0,0,.1.054.638.638,0,0,0,.379-.13,1.683,1.683,0,0,0,.333-.324,3.108,3.108,0,0,0,.276-.416q.124-.222.206-.407a2.063,2.063,0,0,0,.1-.264,2.626,2.626,0,0,1,.1-.26.8.8,0,0,1,.119-.2.211.211,0,0,1,.168-.08.208.208,0,0,1,.174.083.316.316,0,0,1,.064.2.566.566,0,0,1-.041.179q-.041.114-.1.26t-.136.313q-.073.167-.136.338a3.352,3.352,0,0,0-.1.336,1.26,1.26,0,0,0-.041.306.117.117,0,0,0,.134.13.586.586,0,0,0,.235-.065,1.607,1.607,0,0,0,.295-.183c.026-.02.052-.04.077-.061a2.511,2.511,0,0,1,.1-.327q.107-.282.217-.561l.2-.51.925-2.333a.391.391,0,0,1,.148-.2.354.354,0,0,1,.188-.058.272.272,0,0,1,.172.061.238.238,0,0,1,.078.2.407.407,0,0,1-.026.137,1.664,1.664,0,0,1-.066.156q-.076.17-.182.416t-.226.535q-.121.289-.247.6l-.247.609q-.12.3-.226.562l-.182.461a2.031,2.031,0,0,0-.066.194.713.713,0,0,0-.032.2.177.177,0,0,0,.018.087.073.073,0,0,0,.07.033.4.4,0,0,0,.16-.045,1.638,1.638,0,0,0,.208-.119q.112-.074.232-.17t.24-.2q.119-.1.228-.206t.194-.19a.137.137,0,0,1,.047-.031c.034-.1.066-.2.093-.3q.024-.065.067-.185a2.535,2.535,0,0,1,.1-.235,1.007,1.007,0,0,1,.124-.2A.193.193,0,0,1,19.185,16a.24.24,0,0,1,.177.056.226.226,0,0,1,.055.165.6.6,0,0,1-.006.069c0,.031-.009.065-.015.1s-.013.068-.02.1a.456.456,0,0,1-.02.069q.113-.123.244-.244a2.513,2.513,0,0,1,.272-.219,1.571,1.571,0,0,1,.287-.159.755.755,0,0,1,.293-.061.71.71,0,0,1,.2.029.575.575,0,0,1,.177.085.444.444,0,0,1,.127.141.388.388,0,0,1,.049.2.78.78,0,0,1-.075.317,2.293,2.293,0,0,1-.188.338q-.113.17-.244.331t-.246.293l-.193.224a.338.338,0,0,0-.081.125.1.1,0,0,0,.028.071.128.128,0,0,0,.092.027.352.352,0,0,0,.153-.058,2.6,2.6,0,0,0,.282-.2q.182-.143.461-.383c.128-.11.277-.241.446-.39l.808-7.48a2.024,2.024,0,0,1-.345.143A8.427,8.427,0,0,1,20.5,9.973ZM16,8.2c-3.492,0-6.322.39-6.322.872S12.5,9.942,16,9.942s6.322-.39,6.322-.872S19.488,8.2,16,8.2Zm2.524,1.127c0,.113-.336.2-.751.2s-.751-.092-.751-.2.336-.2.751-.2S18.521,9.212,18.521,9.325Z" style="fill:#da4648"></path><path d="M17.17,9.234a.034.034,0,0,0-.006.018c0,.073.271.132.6.132s.6-.059.6-.132l.79-3.2,3.142-3.317,0,0c.066-.075-.068-.308-.292-.508s-.466-.267-.541-.191l0,0L18.122,5.559Z" style="fill:#da4648"></path></g>
  </g>

  <g id="vscode">
    <g id="SVGRepo_bgCarrier" stroke-width="0"></g><g id="SVGRepo_tracerCarrier" stroke-linecap="round" stroke-linejoin="round"></g><g id="SVGRepo_iconCarrier"><title>file_type_vscode</title><path d="M29.01,5.03,23.244,2.254a1.742,1.742,0,0,0-1.989.338L2.38,19.8A1.166,1.166,0,0,0,2.3,21.447c.025.027.05.053.077.077l1.541,1.4a1.165,1.165,0,0,0,1.489.066L28.142,5.75A1.158,1.158,0,0,1,30,6.672V6.605A1.748,1.748,0,0,0,29.01,5.03Z" style="fill:#0065a9"></path><path d="M29.01,26.97l-5.766,2.777a1.745,1.745,0,0,1-1.989-.338L2.38,12.2A1.166,1.166,0,0,1,2.3,10.553c.025-.027.05-.053.077-.077l1.541-1.4A1.165,1.165,0,0,1,5.41,9.01L28.142,26.25A1.158,1.158,0,0,0,30,25.328V25.4A1.749,1.749,0,0,1,29.01,26.97Z" style="fill:#007acc"></path><path d="M23.244,29.747a1.745,1.745,0,0,1-1.989-.338A1.025,1.025,0,0,0,23,28.684V3.316a1.024,1.024,0,0,0-1.749-.724,1.744,1.744,0,0,1,1.989-.339l5.765,2.772A1.748,1.748,0,0,1,30,6.6V25.4a1.748,1.748,0,0,1-.991,1.576Z" style="fill:#1f9cf0"></path></g>
  </g>

</svg>


